HIERARCHY
ROOT Hips
{
  OFFSET 0 0 0
  CHANNELS 6 Xposition Yposition Zposition Zrotation Yrotation Xrotation
  JOINT LeftThigh
  {
    OFFSET 8.409438 0 -5.917753
    CHANNELS 3 Zrotation Yrotation Xrotation
    JOINT LeftLeg
    {
      OFFSET 0 0 -42.358652
      CHANNELS 3 Zrotation Yrotation Xrotation
      JOINT LeftFoot
      {
        OFFSET 0 0 -39.357303
        CHANNELS 3 Zrotation Yrotation Xrotation
      }
    }
  }
  JOINT RightThigh
  {
    OFFSET -8.409438 0 -5.917753
    CHANNELS 3 Zrotation Yrotation Xrotation
    JOINT RightLeg
    {
      OFFSET 0 0 -42.358652
      CHANNELS 3 Zrotation Yrotation Xrotation
      JOINT RightFoot
      {
        OFFSET 0 0 -39.357303
        CHANNELS 3 Zrotation Yrotation Xrotation
      }
    }
  }
  JOINT SpineLow
  {
    OFFSET 0 0 4.719101
    CHANNELS 3 Zrotation Yrotation Xrotation
    JOINT SpineMid
    {
      OFFSET 0 0 12.899191
      CHANNELS 3 Zrotation Yrotation Xrotation
      JOINT Chest
      {
        OFFSET 0 0 12.899191
        CHANNELS 3 Zrotation Yrotation Xrotation
        JOINT LeftShoulder
        {
          OFFSET 7.550562 1.41573 9.438202
          CHANNELS 3 Zrotation Yrotation Xrotation
          JOINT LeftArm
          {
            OFFSET 9.155056 0 4.247191
            CHANNELS 3 Zrotation Yrotation Xrotation
            JOINT LeftForearm
            {
              OFFSET 0 0 25.771955
              CHANNELS 3 Zrotation Yrotation Xrotation
              JOINT LeftHand
              {
                OFFSET 0 0 25.197169
                CHANNELS 3 Zrotation Yrotation Xrotation
              }
            }
          }
        }
        JOINT RightShoulder
        {
          OFFSET -7.550562 1.41573 9.438202
          CHANNELS 3 Zrotation Yrotation Xrotation
          JOINT RightArm
          {
            OFFSET -9.155056 0 4.247191
            CHANNELS 3 Zrotation Yrotation Xrotation
            JOINT RightForearm
            {
              OFFSET 0 0 -25.771955
              CHANNELS 3 Zrotation Yrotation Xrotation
              JOINT RightHand
              {
                OFFSET 0 0 -25.197169
                CHANNELS 3 Zrotation Yrotation Xrotation
              }
            }
          }
        }
        JOINT Neck
        {
          OFFSET 0 0 15.101124
          CHANNELS 3 Zrotation Yrotation Xrotation
          JOINT Head
          {
            OFFSET 0 0 11.325843
            CHANNELS 3 Zrotation Yrotation Xrotation
            End Site
            {
              OFFSET 0 0 14.157303
            }
          }
        }
      }
    }
  }
}
MOTION
Frames: 10
Frame Time: 0.0
0.0  89.887642  0.0  74.367169  -39.392703  -154.305355  15.43838  -58.510234  -36.349623  20.426115  44.30379  58.097063  -5.537497  0.016251  9.149105  -19.796601  28.348267  -34.381372  4.727771  19.14111  30.147309  9.182824  2.189441  -1.130678  1.974645  4.328092  1.79801  5.774338  11.66501  5.318638  5.774338  11.66501  5.318638  -0.127683  6.591675  5.816398  -155.040226  55.13114  -134.735035  -47.271542  -2.939726  95.65391  84.994477  56.919282  -27.041342  3.153219  -10.68968  7.527496  122.362605  24.510554  37.762432  -21.639358  7.563398  -93.636711  94.192568  14.576565  -15.480077  19.995606  14.627553  8.022184  14.721412  11.247398  5.502214  
0.0  89.887642  0.0  73.126333  -39.213655  -153.402164  23.293058  -57.224967  -43.346813  23.190765  46.321988  64.4498  -4.728789  -0.421287  9.293011  -22.029593  27.176467  -36.213738  6.972452  19.028257  31.689426  9.185134  2.008623  -0.985772  2.063458  4.263582  1.816678  6.015757  11.479727  5.378572  6.015757  11.479727  5.378572  0.084809  6.514984  5.649245  -157.588137  55.140004  -135.181236  -46.483838  -2.867454  95.635721  84.524199  56.925667  -27.03476  3.436321  -10.781623  8.760735  120.666582  25.764088  36.225426  -22.549845  7.476558  -93.621292  93.628547  14.79405  -14.493566  19.372803  14.360762  8.277093  14.257522  11.0463  5.717617  
0.0  89.887642  0.0  71.640783  -38.991165  -152.013478  30.356602  -55.353657  -50.108609  26.846033  47.356864  71.739694  -3.502974  -0.929146  9.321159  -23.297666  26.91957  -37.151335  8.081914  18.075902  32.759763  8.611759  2.120121  -0.912416  2.10107  4.234617  1.831558  6.11896  11.396058  5.422824  6.11896  11.396058  5.422824  0.474373  6.060013  5.369318  -160.290591  54.953521  -135.781853  -45.559751  -2.998294  95.710432  84.314357  57.347222  -26.689139  3.898321  -10.862752  9.647234  118.627239  27.219663  34.576418  -22.984619  7.197481  -93.591791  93.180974  14.899165  -13.505629  18.621668  14.070615  8.274988  13.70424  10.81733  5.744254  
0.0  89.887642  0.0  69.832786  -38.828925  -150.32263  35.397467  -53.300522  -55.432248  30.727701  47.172914  78.774692  -2.162621  -1.326772  9.368437  -23.095587  27.292957  -36.742088  7.218304  17.415698  33.299598  7.895293  2.460331  -0.956931  2.147445  4.200953  1.821214  6.241427  11.301234  5.398441  6.241427  11.301235  5.398441  0.964784  5.341176  5.268794  -163.725976  54.689403  -136.859808  -44.661829  -3.513546  95.761064  84.051805  57.919632  -26.442473  4.231539  -11.008589  10.415523  116.184096  28.655003  32.739859  -24.363029  7.070233  -93.51874  91.805721  15.238365  -14.192907  17.747754  13.669759  8.277203  13.061521  10.503663  5.77995  
0.0  89.887642  0.0  67.819326  -38.758818  -148.745759  38.555981  -51.52697  -59.242184  34.653676  46.138936  85.336959  -1.118732  -1.726416  9.387556  -21.954041  27.700255  -35.316877  5.263992  17.544541  33.42472  7.408082  2.655007  -1.019438  2.234618  4.133938  1.84953  6.479287  11.108059  5.483364  6.479287  11.108058  5.483363  1.115991  4.595541  5.078974  -167.738131  54.354728  -138.553719  -43.831105  -4.13511  95.91937  83.653812  58.604312  -26.768431  4.439679  -11.236694  10.883159  113.383174  29.849796  30.824065  -23.807644  6.22363  -93.498034  91.165491  15.343343  -13.768738  16.716806  13.259568  8.27885  12.301251  10.18078  5.817622  
0.0  89.887642  0.0  65.558357  -38.821625  -147.110123  41.092786  -49.961305  -62.398909  37.898225  45.208171  91.136677  -0.310665  -2.006699  9.27253  -20.86389  27.685765  -33.358853  3.126102  18.146177  33.069791  7.221099  2.610665  -1.150423  2.332793  4.004722  1.884244  6.741435  10.743389  5.579508  6.741435  10.74339  5.579508  1.253625  4.049032  4.944858  -172.243556  53.917139  -140.542728  -43.101874  -4.721209  96.054598  83.065399  59.191429  -27.986882  4.66757  -11.441304  11.136665  110.324741  30.763931  28.945979  -22.899678  5.194215  -93.466752  91.444874  15.6388  -12.010568  15.656229  12.908662  8.317152  11.516211  9.903028  5.87995  
0.0  89.887642  0.0  62.936689  -38.825287  -145.324549  43.005709  -48.838464  -64.989459  40.830736  44.968388  96.297683  0.584253  -2.120847  9.080535  -20.670753  27.025404  -31.696035  1.606789  18.870687  32.686578  7.40631  2.589037  -1.280589  2.373772  3.821016  1.930512  6.841485  10.233792  5.690627  6.841485  10.233792  5.690627  1.589486  3.777177  4.768261  -177.199354  53.198919  -142.591703  -42.455374  -5.34607  96.053597  82.071637  59.689035  -30.368194  5.142136  -11.431914  11.356502  107.297749  31.600872  27.170522  -21.869034  3.976211  -93.352833  90.832989  16.27591  -11.965611  14.667515  12.647276  8.363046  10.782363  9.693666  5.942576  
0.0  89.887642  0.0  59.87956  -38.369212  -143.481727  43.694223  -48.508047  -66.911528  44.519489  45.283299  101.572097  1.370993  -2.110603  8.784619  -21.64277  26.218799  -30.373896  0.782933  19.304108  32.309639  7.837937  2.83327  -1.274509  2.330533  3.627616  2.023885  6.715232  9.700438  5.917136  6.715232  9.700437  5.917135  1.97328  3.626031  4.462157  177.733268  52.088288  -144.742226  -41.85083  -5.717507  95.996545  80.416226  60.00883  -33.961027  5.695086  -11.282281  11.558675  104.44572  32.457704  25.519624  -20.989248  2.707067  -93.150324  90.321332  17.031322  -11.940397  13.70035  12.416497  8.411908  10.063651  9.507594  6.005262  
0.0  89.887642  0.0  56.85723  -37.632655  -141.619912  43.140292  -48.966714  -68.177387  49.303929  45.679189  106.760498  1.859126  -1.989821  8.394973  -23.196437  25.332165  -29.466223  0.857868  19.496287  32.282601  7.740037  2.86753  -1.306358  2.296866  3.436741  2.095682  6.611559  9.175603  6.086687  6.611559  9.175604  6.086687  2.264104  3.449196  4.235055  172.781447  50.77219  -146.449506  -41.30831  -5.75699  95.489869  77.944642  60.109319  -38.648033  5.995853  -11.044289  11.938578  101.89859  33.250766  24.045234  -20.613522  1.738974  -92.86914  89.968327  17.64228  -11.68025  12.595738  12.151883  8.583589  9.240281  9.296643  6.162582  
0.0  89.887642  0.0  54.104905  -36.984457  -139.335185  42.502005  -49.500751  -69.684268  54.49573  46.239022  111.508821  2.31664  -1.693325  8.001074  -24.941137  24.150963  -29.290076  1.42747  19.448485  32.417738  7.647108  2.946598  -1.312575  2.323383  3.261257  2.065035  6.660802  8.697692  5.985294  6.660803  8.697692  5.985294  2.475057  3.080557  4.070292  167.791914  49.196703  -147.672437  -40.947113  -5.720459  94.633854  74.834373  59.957902  -43.982983  6.019821  -10.868966  12.332821  99.478509  34.018084  22.675099  -20.70679  1.061751  -92.471193  90.046259  17.883751  -11.120366  11.314094  11.818826  8.800733  8.284912  9.03204  6.357922  
